<?xml version="1.0" encoding="UTF-8"?><svg id="Layer_2" xmlns="http://www.w3.org/2000/svg" viewBox="0 0 102.99 101.99"><defs><style>.cls-1{fill:#fff;}.cls-2{fill:#e30613;}</style></defs><polygon class="cls-2" points="23.94 7.21 23.94 93.05 33.87 93.05 33.87 50.77 66.04 50.98 66.04 93.05 76.06 93.05 76.06 7.21 66.12 7.21 65.94 42.05 34.16 42.05 34.06 7.21 23.94 7.21"/><polygon class="cls-1" points=".89 7.21 23.77 81.2 34.27 81.2 49.67 34.11 67.14 86.03 75.58 86.03 99.11 7.22 86.62 7.21 70.29 65.42 52.54 7.21 47.77 7.2 29.77 65.2 12.93 7.21 .89 7.21"/><polyline class="cls-2" points="23.94 42.46 23.94 93.05 33.87 93.05 33.87 50.77"/><polyline class="cls-2" points="76.06 42.11 76.06 93.05 66.04 93.05 66.04 50.98"/></svg>